<mxfile host="app.diagrams.net" agent="Mozilla/5.0 (Windows NT 10.0; Win64; x64) AppleWebKit/537.36 (KHTML, like Gecko) Chrome/133.0.0.0 Safari/537.36 Edg/133.0.0.0" version="26.2.12">
  <diagram name="Page-1" id="8NNkzZ-ohzG6kRnrI0fb">
    <mxGraphModel dx="1420" dy="794" grid="1" gridSize="10" guides="1" tooltips="1" connect="1" arrows="1" fold="1" page="1" pageScale="1" pageWidth="850" pageHeight="1100" math="0" shadow="0">
      <root>
        <mxCell id="0" />
        <mxCell id="1" parent="0" />
        <mxCell id="z8hDwrSHgBkn_6CrfAV7-230" value="" style="rounded=0;whiteSpace=wrap;html=1;fillColor=#60a917;fontColor=#ffffff;strokeColor=#2D7600;" vertex="1" parent="1">
          <mxGeometry width="850" height="1250" as="geometry" />
        </mxCell>
        <mxCell id="z8hDwrSHgBkn_6CrfAV7-76" value="" style="verticalLabelPosition=bottom;verticalAlign=top;html=1;shape=mxgraph.basic.rect;fillColor2=none;strokeWidth=1;size=20;indent=5;" vertex="1" parent="1">
          <mxGeometry x="11" y="530" width="829.5" height="350" as="geometry" />
        </mxCell>
        <mxCell id="z8hDwrSHgBkn_6CrfAV7-2" value="" style="rounded=0;whiteSpace=wrap;html=1;fillColor=light-dark(#A20025,#4D4247);fontColor=#ffffff;strokeColor=#6F0000;" vertex="1" parent="1">
          <mxGeometry x="10" y="10" width="830" height="110" as="geometry" />
        </mxCell>
        <mxCell id="z8hDwrSHgBkn_6CrfAV7-3" value="" style="verticalLabelPosition=bottom;shadow=0;dashed=0;align=center;html=1;verticalAlign=top;strokeWidth=1;shape=mxgraph.mockup.graphics.simpleIcon;strokeColor=#999999;" vertex="1" parent="1">
          <mxGeometry x="70" y="21.25" width="100" height="87.5" as="geometry" />
        </mxCell>
        <mxCell id="z8hDwrSHgBkn_6CrfAV7-4" value="" style="swimlane;shape=mxgraph.bootstrap.anchor;strokeColor=#999999;fillColor=#ffffff;fontColor=#666666;childLayout=stackLayout;horizontal=0;startSize=0;horizontalStack=1;resizeParent=1;resizeParentMax=0;resizeLast=0;collapsible=0;marginBottom=0;whiteSpace=wrap;html=1;" vertex="1" parent="1">
          <mxGeometry x="240" y="50" width="560" height="30" as="geometry" />
        </mxCell>
        <mxCell id="z8hDwrSHgBkn_6CrfAV7-5" value="Home" style="text;strokeColor=inherit;align=center;verticalAlign=middle;spacingLeft=10;spacingRight=10;overflow=hidden;points=[[0,0.5],[1,0.5]];portConstraint=eastwest;rotatable=0;whiteSpace=wrap;html=1;fillColor=inherit;fontColor=inherit;fontSize=17;" vertex="1" parent="z8hDwrSHgBkn_6CrfAV7-4">
          <mxGeometry width="140" height="30" as="geometry" />
        </mxCell>
        <mxCell id="z8hDwrSHgBkn_6CrfAV7-6" value="About Us" style="text;strokeColor=inherit;align=center;verticalAlign=middle;spacingLeft=10;spacingRight=10;overflow=hidden;points=[[0,0.5],[1,0.5]];portConstraint=eastwest;rotatable=0;whiteSpace=wrap;html=1;fillColor=inherit;fontColor=inherit;fontSize=17;" vertex="1" parent="z8hDwrSHgBkn_6CrfAV7-4">
          <mxGeometry x="140" width="140" height="30" as="geometry" />
        </mxCell>
        <mxCell id="z8hDwrSHgBkn_6CrfAV7-7" value="Trips" style="text;strokeColor=inherit;align=center;verticalAlign=middle;spacingLeft=10;spacingRight=10;overflow=hidden;points=[[0,0.5],[1,0.5]];portConstraint=eastwest;rotatable=0;whiteSpace=wrap;html=1;fillColor=inherit;fontColor=inherit;fontSize=17;" vertex="1" parent="z8hDwrSHgBkn_6CrfAV7-4">
          <mxGeometry x="280" width="140" height="30" as="geometry" />
        </mxCell>
        <mxCell id="z8hDwrSHgBkn_6CrfAV7-8" value="Contact Us" style="text;strokeColor=inherit;align=center;verticalAlign=middle;spacingLeft=10;spacingRight=10;overflow=hidden;points=[[0,0.5],[1,0.5]];portConstraint=eastwest;rotatable=0;whiteSpace=wrap;html=1;fillColor=inherit;fontColor=inherit;fontSize=17;" vertex="1" parent="z8hDwrSHgBkn_6CrfAV7-4">
          <mxGeometry x="420" width="140" height="30" as="geometry" />
        </mxCell>
        <mxCell id="z8hDwrSHgBkn_6CrfAV7-9" value="" style="rounded=0;whiteSpace=wrap;html=1;fillColor=light-dark(#A20025,#4D4247);fontColor=#ffffff;strokeColor=#6F0000;" vertex="1" parent="1">
          <mxGeometry x="10" y="1170" width="830" height="70" as="geometry" />
        </mxCell>
        <mxCell id="z8hDwrSHgBkn_6CrfAV7-10" value="" style="verticalLabelPosition=bottom;shadow=0;dashed=0;align=center;html=1;verticalAlign=top;strokeWidth=1;shape=mxgraph.mockup.graphics.simpleIcon;strokeColor=#999999;" vertex="1" parent="1">
          <mxGeometry x="750" y="1180" width="50" height="50" as="geometry" />
        </mxCell>
        <mxCell id="z8hDwrSHgBkn_6CrfAV7-11" value="" style="verticalLabelPosition=bottom;shadow=0;dashed=0;align=center;html=1;verticalAlign=top;strokeWidth=1;shape=mxgraph.mockup.graphics.simpleIcon;strokeColor=#999999;" vertex="1" parent="1">
          <mxGeometry x="690" y="1180" width="50" height="50" as="geometry" />
        </mxCell>
        <mxCell id="z8hDwrSHgBkn_6CrfAV7-12" value="" style="verticalLabelPosition=bottom;shadow=0;dashed=0;align=center;html=1;verticalAlign=top;strokeWidth=1;shape=mxgraph.mockup.graphics.simpleIcon;strokeColor=#999999;" vertex="1" parent="1">
          <mxGeometry x="630" y="1180" width="50" height="50" as="geometry" />
        </mxCell>
        <mxCell id="z8hDwrSHgBkn_6CrfAV7-13" value="&lt;font style=&quot;font-size: 16px;&quot;&gt;&lt;b&gt;Footter - Social Media&lt;/b&gt;&lt;/font&gt;" style="text;html=1;align=center;verticalAlign=middle;whiteSpace=wrap;rounded=0;" vertex="1" parent="1">
          <mxGeometry x="325" y="1190" width="200" height="30" as="geometry" />
        </mxCell>
        <mxCell id="z8hDwrSHgBkn_6CrfAV7-36" value="" style="verticalLabelPosition=bottom;shadow=0;dashed=0;align=center;html=1;verticalAlign=top;strokeWidth=1;shape=mxgraph.mockup.graphics.simpleIcon;strokeColor=#999999;" vertex="1" parent="1">
          <mxGeometry x="28.37" y="580" width="239.5" height="160" as="geometry" />
        </mxCell>
        <mxCell id="z8hDwrSHgBkn_6CrfAV7-43" value="Wireframe" style="text;html=1;align=center;verticalAlign=middle;whiteSpace=wrap;rounded=0;" vertex="1" parent="1">
          <mxGeometry x="60" y="1190" width="60" height="30" as="geometry" />
        </mxCell>
        <mxCell id="z8hDwrSHgBkn_6CrfAV7-46" value="" style="verticalLabelPosition=bottom;shadow=0;dashed=0;align=center;html=1;verticalAlign=top;strokeWidth=1;shape=mxgraph.mockup.graphics.simpleIcon;strokeColor=#999999;" vertex="1" parent="1">
          <mxGeometry x="10" y="120" width="830" height="390" as="geometry" />
        </mxCell>
        <mxCell id="z8hDwrSHgBkn_6CrfAV7-47" value="&lt;h1 style=&quot;margin-top: 0px;&quot;&gt;Your Adventure starts here&lt;/h1&gt;" style="text;html=1;whiteSpace=wrap;overflow=hidden;rounded=0;" vertex="1" parent="1">
          <mxGeometry x="269" y="190" width="312" height="40" as="geometry" />
        </mxCell>
        <mxCell id="z8hDwrSHgBkn_6CrfAV7-48" value="Book with Us" style="strokeWidth=1;shadow=0;dashed=0;align=center;html=1;shape=mxgraph.mockup.buttons.button;strokeColor=#666666;fontColor=#ffffff;mainText=;buttonStyle=round;fontSize=17;fontStyle=1;fillColor=#008cff;whiteSpace=wrap;" vertex="1" parent="1">
          <mxGeometry x="350" y="290" width="150" height="50" as="geometry" />
        </mxCell>
        <mxCell id="z8hDwrSHgBkn_6CrfAV7-75" value="&lt;h1 style=&quot;margin-top: 0px;&quot;&gt;Trip 1&lt;/h1&gt;&lt;p&gt;Lorem ipsum dolor sit amet, consectetur adipisicing elit, sed do eiusmod tempor incididunt ut labore et dolore magna aliqua.&lt;/p&gt;" style="text;html=1;whiteSpace=wrap;overflow=hidden;rounded=0;" vertex="1" parent="1">
          <mxGeometry x="28.37" y="750" width="241.63" height="160" as="geometry" />
        </mxCell>
        <mxCell id="z8hDwrSHgBkn_6CrfAV7-78" value="" style="verticalLabelPosition=bottom;shadow=0;dashed=0;align=center;html=1;verticalAlign=top;strokeWidth=1;shape=mxgraph.mockup.graphics.simpleIcon;strokeColor=#999999;" vertex="1" parent="1">
          <mxGeometry x="307.87" y="580" width="239.5" height="160" as="geometry" />
        </mxCell>
        <mxCell id="z8hDwrSHgBkn_6CrfAV7-79" value="" style="verticalLabelPosition=bottom;shadow=0;dashed=0;align=center;html=1;verticalAlign=top;strokeWidth=1;shape=mxgraph.mockup.graphics.simpleIcon;strokeColor=#999999;" vertex="1" parent="1">
          <mxGeometry x="583.62" y="580" width="239.5" height="160" as="geometry" />
        </mxCell>
        <mxCell id="z8hDwrSHgBkn_6CrfAV7-80" value="&lt;h1 style=&quot;margin-top: 0px;&quot;&gt;Trips&lt;/h1&gt;" style="text;html=1;whiteSpace=wrap;overflow=hidden;rounded=0;" vertex="1" parent="1">
          <mxGeometry x="394" y="535" width="62.63" height="40" as="geometry" />
        </mxCell>
        <mxCell id="z8hDwrSHgBkn_6CrfAV7-81" value="&lt;h1 style=&quot;margin-top: 0px;&quot;&gt;Trip 2&lt;/h1&gt;&lt;p&gt;Lorem ipsum dolor sit amet, consectetur adipisicing elit, sed do eiusmod tempor incididunt ut labore et dolore magna aliqua.&lt;/p&gt;" style="text;html=1;whiteSpace=wrap;overflow=hidden;rounded=0;" vertex="1" parent="1">
          <mxGeometry x="308" y="750" width="241.63" height="160" as="geometry" />
        </mxCell>
        <mxCell id="z8hDwrSHgBkn_6CrfAV7-115" value="&lt;h1 style=&quot;margin-top: 0px;&quot;&gt;Trip 3&lt;/h1&gt;&lt;p&gt;Lorem ipsum dolor sit amet, consectetur adipisicing elit, sed do eiusmod tempor incididunt ut labore et dolore magna aliqua.&lt;/p&gt;" style="text;html=1;whiteSpace=wrap;overflow=hidden;rounded=0;" vertex="1" parent="1">
          <mxGeometry x="583.62" y="750" width="241.63" height="160" as="geometry" />
        </mxCell>
        <mxCell id="z8hDwrSHgBkn_6CrfAV7-120" value="&lt;h1 style=&quot;margin-top: 0px;&quot;&gt;Availability&lt;/h1&gt;" style="text;html=1;whiteSpace=wrap;overflow=hidden;rounded=0;" vertex="1" parent="1">
          <mxGeometry x="357" y="900" width="137" height="40" as="geometry" />
        </mxCell>
        <mxCell id="z8hDwrSHgBkn_6CrfAV7-229" value="" style="group" vertex="1" connectable="0" parent="1">
          <mxGeometry x="240" y="950" width="370" height="180" as="geometry" />
        </mxCell>
        <mxCell id="z8hDwrSHgBkn_6CrfAV7-228" value="" style="rounded=0;whiteSpace=wrap;html=1;" vertex="1" parent="z8hDwrSHgBkn_6CrfAV7-229">
          <mxGeometry width="369.99999999999994" height="180" as="geometry" />
        </mxCell>
        <mxCell id="z8hDwrSHgBkn_6CrfAV7-116" value="Name" style="strokeWidth=1;shadow=0;dashed=0;align=center;html=1;shape=mxgraph.mockup.forms.uRect;fontSize=17;fontColor=#666666;align=left;spacingLeft=5;strokeColor=#666666;" vertex="1" parent="z8hDwrSHgBkn_6CrfAV7-229">
          <mxGeometry x="14.575757575757574" y="10.799999999999999" width="78.48484848484847" height="36" as="geometry" />
        </mxCell>
        <mxCell id="z8hDwrSHgBkn_6CrfAV7-117" value="Duration" style="strokeWidth=1;shadow=0;dashed=0;align=center;html=1;shape=mxgraph.mockup.forms.uRect;fontSize=17;fontColor=#ffffff;align=left;spacingLeft=5;strokeColor=#008cff;fillColor=#008cff;" vertex="1" parent="z8hDwrSHgBkn_6CrfAV7-229">
          <mxGeometry x="98.66666666666666" y="10.799999999999999" width="84.09090909090908" height="36" as="geometry" />
        </mxCell>
        <mxCell id="z8hDwrSHgBkn_6CrfAV7-118" value="Location" style="strokeWidth=1;shadow=0;dashed=0;align=center;html=1;shape=mxgraph.mockup.forms.uRect;fontSize=17;fontColor=#666666;align=left;spacingLeft=5;strokeColor=#666666;" vertex="1" parent="z8hDwrSHgBkn_6CrfAV7-229">
          <mxGeometry x="188.36363636363635" y="10.799999999999999" width="84.09090909090908" height="36" as="geometry" />
        </mxCell>
        <mxCell id="z8hDwrSHgBkn_6CrfAV7-119" value="Cost" style="strokeWidth=1;shadow=0;dashed=0;align=center;html=1;shape=mxgraph.mockup.forms.uRect;fontSize=17;fontColor=#ffffff;align=left;spacingLeft=5;strokeColor=#008cff;fillColor=#008cff;" vertex="1" parent="z8hDwrSHgBkn_6CrfAV7-229">
          <mxGeometry x="278.060606060606" y="10.799999999999999" width="78.48484848484847" height="36" as="geometry" />
        </mxCell>
        <mxCell id="z8hDwrSHgBkn_6CrfAV7-121" value="Trip 1" style="strokeWidth=1;shadow=0;dashed=0;align=center;html=1;shape=mxgraph.mockup.forms.uRect;fontSize=17;fontColor=#666666;align=left;spacingLeft=5;strokeColor=#666666;" vertex="1" parent="z8hDwrSHgBkn_6CrfAV7-229">
          <mxGeometry x="14.575757575757574" y="51.6" width="78.48484848484847" height="36" as="geometry" />
        </mxCell>
        <mxCell id="z8hDwrSHgBkn_6CrfAV7-122" value="info" style="strokeWidth=1;shadow=0;dashed=0;align=center;html=1;shape=mxgraph.mockup.forms.uRect;fontSize=17;fontColor=#ffffff;align=left;spacingLeft=5;strokeColor=#008cff;fillColor=#008cff;" vertex="1" parent="z8hDwrSHgBkn_6CrfAV7-229">
          <mxGeometry x="98.66666666666666" y="51.6" width="84.09090909090908" height="36" as="geometry" />
        </mxCell>
        <mxCell id="z8hDwrSHgBkn_6CrfAV7-123" value="info" style="strokeWidth=1;shadow=0;dashed=0;align=center;html=1;shape=mxgraph.mockup.forms.uRect;fontSize=17;fontColor=#666666;align=left;spacingLeft=5;strokeColor=#666666;" vertex="1" parent="z8hDwrSHgBkn_6CrfAV7-229">
          <mxGeometry x="188.36363636363635" y="51.6" width="84.09090909090908" height="36" as="geometry" />
        </mxCell>
        <mxCell id="z8hDwrSHgBkn_6CrfAV7-124" value="$" style="strokeWidth=1;shadow=0;dashed=0;align=center;html=1;shape=mxgraph.mockup.forms.uRect;fontSize=17;fontColor=#ffffff;align=left;spacingLeft=5;strokeColor=#008cff;fillColor=#008cff;" vertex="1" parent="z8hDwrSHgBkn_6CrfAV7-229">
          <mxGeometry x="278.060606060606" y="51.6" width="78.48484848484847" height="36" as="geometry" />
        </mxCell>
        <mxCell id="z8hDwrSHgBkn_6CrfAV7-219" value="Trip 2" style="strokeWidth=1;shadow=0;dashed=0;align=center;html=1;shape=mxgraph.mockup.forms.uRect;fontSize=17;fontColor=#666666;align=left;spacingLeft=5;strokeColor=#666666;" vertex="1" parent="z8hDwrSHgBkn_6CrfAV7-229">
          <mxGeometry x="14.575757575757574" y="92.39999999999999" width="78.48484848484847" height="36" as="geometry" />
        </mxCell>
        <mxCell id="z8hDwrSHgBkn_6CrfAV7-220" value="info" style="strokeWidth=1;shadow=0;dashed=0;align=center;html=1;shape=mxgraph.mockup.forms.uRect;fontSize=17;fontColor=#ffffff;align=left;spacingLeft=5;strokeColor=#008cff;fillColor=#008cff;" vertex="1" parent="z8hDwrSHgBkn_6CrfAV7-229">
          <mxGeometry x="98.66666666666666" y="92.39999999999999" width="84.09090909090908" height="36" as="geometry" />
        </mxCell>
        <mxCell id="z8hDwrSHgBkn_6CrfAV7-221" value="info" style="strokeWidth=1;shadow=0;dashed=0;align=center;html=1;shape=mxgraph.mockup.forms.uRect;fontSize=17;fontColor=#666666;align=left;spacingLeft=5;strokeColor=#666666;" vertex="1" parent="z8hDwrSHgBkn_6CrfAV7-229">
          <mxGeometry x="188.36363636363635" y="92.39999999999999" width="84.09090909090908" height="36" as="geometry" />
        </mxCell>
        <mxCell id="z8hDwrSHgBkn_6CrfAV7-222" value="$" style="strokeWidth=1;shadow=0;dashed=0;align=center;html=1;shape=mxgraph.mockup.forms.uRect;fontSize=17;fontColor=#ffffff;align=left;spacingLeft=5;strokeColor=#008cff;fillColor=#008cff;" vertex="1" parent="z8hDwrSHgBkn_6CrfAV7-229">
          <mxGeometry x="278.060606060606" y="92.39999999999999" width="78.48484848484847" height="36" as="geometry" />
        </mxCell>
        <mxCell id="z8hDwrSHgBkn_6CrfAV7-224" value="Trip 3" style="strokeWidth=1;shadow=0;dashed=0;align=center;html=1;shape=mxgraph.mockup.forms.uRect;fontSize=17;fontColor=#666666;align=left;spacingLeft=5;strokeColor=#666666;" vertex="1" parent="z8hDwrSHgBkn_6CrfAV7-229">
          <mxGeometry x="14.575757575757574" y="133.2" width="78.48484848484847" height="36" as="geometry" />
        </mxCell>
        <mxCell id="z8hDwrSHgBkn_6CrfAV7-225" value="info" style="strokeWidth=1;shadow=0;dashed=0;align=center;html=1;shape=mxgraph.mockup.forms.uRect;fontSize=17;fontColor=#ffffff;align=left;spacingLeft=5;strokeColor=#008cff;fillColor=#008cff;" vertex="1" parent="z8hDwrSHgBkn_6CrfAV7-229">
          <mxGeometry x="98.66666666666666" y="133.2" width="84.09090909090908" height="36" as="geometry" />
        </mxCell>
        <mxCell id="z8hDwrSHgBkn_6CrfAV7-226" value="info" style="strokeWidth=1;shadow=0;dashed=0;align=center;html=1;shape=mxgraph.mockup.forms.uRect;fontSize=17;fontColor=#666666;align=left;spacingLeft=5;strokeColor=#666666;" vertex="1" parent="z8hDwrSHgBkn_6CrfAV7-229">
          <mxGeometry x="188.36363636363635" y="133.2" width="84.09090909090908" height="36" as="geometry" />
        </mxCell>
        <mxCell id="z8hDwrSHgBkn_6CrfAV7-227" value="$" style="strokeWidth=1;shadow=0;dashed=0;align=center;html=1;shape=mxgraph.mockup.forms.uRect;fontSize=17;fontColor=#ffffff;align=left;spacingLeft=5;strokeColor=#008cff;fillColor=#008cff;" vertex="1" parent="z8hDwrSHgBkn_6CrfAV7-229">
          <mxGeometry x="278.060606060606" y="133.2" width="78.48484848484847" height="36" as="geometry" />
        </mxCell>
      </root>
    </mxGraphModel>
  </diagram>
</mxfile>
